<svg width="400" height="600" xmlns="http://www.w3.org/2000/svg">
  <!-- Building base (wider) -->
  <rect x="120" y="400" width="160" height="150" fill="#C0C0C0" stroke="#808080" stroke-width="2"/>
  
  <!-- Middle section -->
  <rect x="140" y="300" width="120" height="100" fill="#D3D3D3" stroke="#808080" stroke-width="2"/>
  
  <!-- Upper section -->
  <rect x="160" y="200" width="80" height="100" fill="#E0E0E0" stroke="#808080" stroke-width="2"/>
  
  <!-- Top section -->
  <rect x="180" y="120" width="40" height="80" fill="#F0F0F0" stroke="#808080" stroke-width="2"/>
  
  <!-- Spire -->
  <rect x="195" y="50" width="10" height="70" fill="#888888"/>
  
  <!-- Antenna -->
  <line x1="200" y1="50" x2="200" y2="20" stroke="#666666" stroke-width="3"/>
  <circle cx="200" cy="20" r="3" fill="#666666"/>
  
  <!-- Windows on base -->
  <g fill="#404040">
    <rect x="130" y="420" width="8" height="12" rx="1"/>
    <rect x="145" y="420" width="8" height="12" rx="1"/>
    <rect x="160" y="420" width="8" height="12" rx="1"/>
    <rect x="175" y="420" width="8" height="12" rx="1"/>
    <rect x="190" y="420" width="8" height="12" rx="1"/>
    <rect x="205" y="420" width="8" height="12" rx="1"/>
    <rect x="220" y="420" width="8" height="12" rx="1"/>
    <rect x="235" y="420" width="8" height="12" rx="1"/>
    <rect x="250" y="420" width="8" height="12" rx="1"/>
    <rect x="265" y="420" width="8" height="12" rx="1"/>
    
    <rect x="130" y="450" width="8" height="12" rx="1"/>
    <rect x="145" y="450" width="8" height="12" rx="1"/>
    <rect x="160" y="450" width="8" height="12" rx="1"/>
    <rect x="175" y="450" width="8" height="12" rx="1"/>
    <rect x="190" y="450" width="8" height="12" rx="1"/>
    <rect x="205" y="450" width="8" height="12" rx="1"/>
    <rect x="220" y="450" width="8" height="12" rx="1"/>
    <rect x="235" y="450" width="8" height="12" rx="1"/>
    <rect x="250" y="450" width="8" height="12" rx="1"/>
    <rect x="265" y="450" width="8" height="12" rx="1"/>
    
    <rect x="130" y="480" width="8" height="12" rx="1"/>
    <rect x="145" y="480" width="8" height="12" rx="1"/>
    <rect x="160" y="480" width="8" height="12" rx="1"/>
    <rect x="175" y="480" width="8" height="12" rx="1"/>
    <rect x="190" y="480" width="8" height="12" rx="1"/>
    <rect x="205" y="480" width="8" height="12" rx="1"/>
    <rect x="220" y="480" width="8" height="12" rx="1"/>
    <rect x="235" y="480" width="8" height="12" rx="1"/>
    <rect x="250" y="480" width="8" height="12" rx="1"/>
    <rect x="265" y="480" width="8" height="12" rx="1"/>
  </g>
  
  <!-- Windows on middle section -->
  <g fill="#404040">
    <rect x="150" y="320" width="8" height="12" rx="1"/>
    <rect x="165" y="320" width="8" height="12" rx="1"/>
    <rect x="180" y="320" width="8" height="12" rx="1"/>
    <rect x="195" y="320" width="8" height="12" rx="1"/>
    <rect x="210" y="320" width="8" height="12" rx="1"/>
    <rect x="225" y="320" width="8" height="12" rx="1"/>
    <rect x="240" y="320" width="8" height="12" rx="1"/>
    
    <rect x="150" y="350" width="8" height="12" rx="1"/>
    <rect x="165" y="350" width="8" height="12" rx="1"/>
    <rect x="180" y="350" width="8" height="12" rx="1"/>
    <rect x="195" y="350" width="8" height="12" rx="1"/>
    <rect x="210" y="350" width="8" height="12" rx="1"/>
    <rect x="225" y="350" width="8" height="12" rx="1"/>
    <rect x="240" y="350" width="8" height="12" rx="1"/>
    
    <rect x="150" y="380" width="8" height="12" rx="1"/>
    <rect x="165" y="380" width="8" height="12" rx="1"/>
    <rect x="180" y="380" width="8" height="12" rx="1"/>
    <rect x="195" y="380" width="8" height="12" rx="1"/>
    <rect x="210" y="380" width="8" height="12" rx="1"/>
    <rect x="225" y="380" width="8" height="12" rx="1"/>
    <rect x="240" y="380" width="8" height="12" rx="1"/>
  </g>
  
  <!-- Windows on upper section -->
  <g fill="#404040">
    <rect x="170" y="220" width="6" height="10" rx="1"/>
    <rect x="185" y="220" width="6" height="10" rx="1"/>
    <rect x="200" y="220" width="6" height="10" rx="1"/>
    <rect x="215" y="220" width="6" height="10" rx="1"/>
    <rect x="230" y="220" width="6" height="10" rx="1"/>
    
    <rect x="170" y="250" width="6" height="10" rx="1"/>
    <rect x="185" y="250" width="6" height="10" rx="1"/>
    <rect x="200" y="250" width="6" height="10" rx="1"/>
    <rect x="215" y="250" width="6" height="10" rx="1"/>
    <rect x="230" y="250" width="6" height="10" rx="1"/>
    
    <rect x="170" y="280" width="6" height="10" rx="1"/>
    <rect x="185" y="280" width="6" height="10" rx="1"/>
    <rect x="200" y="280" width="6" height="10" rx="1"/>
    <rect x="215" y="280" width="6" height="10" rx="1"/>
    <rect x="230" y="280" width="6" height="10" rx="1"/>
  </g>
  
  <!-- Windows on top section -->
  <g fill="#404040">
    <rect x="190" y="140" width="4" height="8" rx="1"/>
    <rect x="200" y="140" width="4" height="8" rx="1"/>
    <rect x="210" y="140" width="4" height="8" rx="1"/>
    
    <rect x="190" y="160" width="4" height="8" rx="1"/>
    <rect x="200" y="160" width="4" height="8" rx="1"/>
    <rect x="210" y="160" width="4" height="8" rx="1"/>
    
    <rect x="190" y="180" width="4" height="8" rx="1"/>
    <rect x="200" y="180" width="4" height="8" rx="1"/>
    <rect x="210" y="180" width="4" height="8" rx="1"/>
  </g>
  
  <!-- Building shadows for depth -->
  <polygon points="280,400 280,550 290,550 290,410" fill="#A0A0A0"/>
  <polygon points="260,300 260,400 270,400 270,310" fill="#B0B0B0"/>
  <polygon points="240,200 240,300 250,300 250,210" fill="#C0C0C0"/>
  <polygon points="220,120 220,200 230,200 230,130" fill="#D0D0D0"/>
  
  <!-- Title -->
  <text x="200" y="580" font-family="Arial" font-size="16" font-weight="bold" text-anchor="middle" fill="#333">Empire State Building</text>
</svg>